<?xml version="1.0" encoding="UTF-8"?>
<svg id="Layer_2" xmlns="http://www.w3.org/2000/svg" version="1.1" viewBox="0 0 1440 814.8">
  <!-- Generator: Adobe Illustrator 29.8.1, SVG Export Plug-In . SVG Version: 2.1.1 Build 2)  -->
  <defs>
    <style>
      .st0 {
        fill: #004999;
      }

      .st1 {
        fill: #85c5a5;
      }

      .st2 {
        fill: #ffc98e;
      }

      .st3 {
        fill: #008b79;
      }

      .st4 {
        fill: #ddb649;
      }

      .st5 {
        fill: #b152f2;
      }

      .st6 {
        fill: #38a7f7;
      }

      .st7 {
        isolation: isolate;
      }

      .st8 {
        fill: #ffca9c;
      }

      .st9 {
        fill: #ffa23d;
      }

      .st10 {
        fill: #f9b749;
      }

      .st11 {
        fill: #02723a;
      }

      .st12 {
        fill: #318e16;
      }

      .st13, .st14 {
        fill: #af0048;
      }

      .st15 {
        fill: #e05f01;
      }

      .st16 {
        fill: #ff4800;
      }

      .st17 {
        fill: #ff0073;
      }

      .st18 {
        fill: #0ba59b;
      }

      .st19 {
        fill: #02555b;
      }

      .st20 {
        fill: #88ab00;
      }

      .st21 {
        fill: #7205aa;
      }

      .st14 {
        stroke: #000;
        stroke-miterlimit: 10;
        stroke-width: 3.8px;
      }

      .st22 {
        fill: #bdccd4;
      }

      .st23 {
        fill: #008eb6;
      }

      .st24 {
        fill: #65a111;
      }

      .st25 {
        fill: #006382;
      }

      .st26 {
        fill: #ffedda;
      }
    </style>
  </defs>
  <g id="Matisse_Front">
    <rect class="st10" width="1440" height="813.8"/>
    <g id="mountain-window">
      <path class="st25" d="M1306.6,288.6c3.6,5.5,8.4,10.7,13.5,15,0,3.5,0,7,0,10.5-7.5-.9-14.9-.9-21.7-4.9,5.4,9.7,11.5,19,21.7,24.3,0,6.8,0,12.5-.8,18.7-6-1.1-11.7-3.7-16.8-6.7-.5-.2-.5.6-.4,1.1,1.1,3.4,8.5,12.7,11.2,15.7,1.7,1.9,4.4,4.6,6.7,5.6,0,2.9-.7,5.3-.8,7.8-.2,6,1,15.7,0,21-.3,1.4-1.2,2.2-2.2,3l-87.3,3c-.8-11.5,0-21.5-.6-29.2l5.6-2.6c3.3-.4,10.7-7.1,13.1-9.7,1.3-1.4,13.2-16.6,12.3-17.2-5.3,1.2-9.9,4.5-15.4,5.1-4.9.6-9.7-.2-14.5-.7v-7.5c14.9-7.3,27.6-18.9,35.9-33.3l-7.2,4c-5.3,2.5-9.5,3.8-15.4,2.9-6.3-.9-11.2-2.9-9.2-10.3,8.8-3.7,17.9-7.7,23.6-15.7,15.9.2,32.5-.3,48.6,0h.1Z"/>
      <path class="st6" d="M1229.6,204.7c0-13.5-.5-27.1.8-40.4h89l.8,113h-16.8c-.8,0-5-5.9-4.5-7.5,2.8,2.9,18.1,1.8,16.8-3.2-.3-1.3-7.7-7.6-9.3-9.5-5.2-6.1-9.1-14.4-12.3-21.7,2.7,1.5,19.8,7,17.9-.2-.6-2.3-11-12.2-13.2-15.2-3.4-4.6-6.8-10.7-9.7-15.7-1.5-2.6-2.8-9.7-7.5-6.9-.7.4-6.4,12.2-7.7,14.3-5.8,9.3-10.8,13.3-17.5,21-4.8,5.5,1.8,6.2,6.5,5.4,3.2-.6,6.1-2.6,8.6-3.4,1-.3,1.4.1,1.1,1.1-1,3.5-6.1,11.6-8.4,14.9-1.8,2.6-4.2,5.6-6.2,8-1.6,1.9-9.4,8.5-9.4,10.1,0,4,15,2.6,18,1.9.8.8-2.8,5.8-3.8,6.3-3.2,1.7-6.7,0-9.7,1.1.8-.7-2.4-3.6-3-4.1-2.3-2.3-5.8-4.5-8.2-6.7-3.8-3.6-7.3-8.5-12-10.9v-51.6h-.3Z"/>
      <path class="st6" d="M1219.1,246.7v.8l-28.5-34c-3.5-2.7-8.3-5.3-12.3-2-3.3,2.8-7.6,8.6-11.2,12-12.2,11.7-24.3,22.3-37.6,32.7-1.5,1.2-1,1.5-.9,3.2h-.8v-94.3c2.4-3.6,6.9-1.5,10.1-1.5,21.4.1,43.2-.1,64.3,0,2.6,0,15.1-.4,16.2.4.7.5.7,1.5.7,2.3,0,26.8,0,53.7,0,80.5h0Z"/>
      <path class="st25" d="M1129.3,365.7c6.8-3.1,14.2-12.1,16.4-19.1,0-.4.2-1.2-.4-1.1-4.4,3.3-9,2.3-13.8.7-.8-1.2,7.4-8.3,8.6-9.7,3.1-3.7,7.2-10,8.6-14.6.7-2.3-3.4.3-4.8.4-1.9.2-4.8.1-6.8,0-.7,0-2.5.4-1.8-1.1.7-1.7,6.8-7.2,8.5-9.4,1.8-2.4,10.4-16.8,11.4-17.1s1.5.2,2.2.6c1.9,1.3,6.8,11.2,9,14.2,2.3,3.2,5.2,6.3,7.8,9.5.6.8,2.2,1,2.3,1.5.9,4.6-10.9,2.7-13.1.4-.6-.1-.5.7-.4,1.1.9,3.5,5.5,10.8,7.9,13.8,1.6,2,9.1,8.1,9.3,8.7.5,1.9-5,3.2-6.5,3.3-2.5.1-4-1.5-6.2-1.1,2.5,4.7,3.7,9.6,7.2,13.8,2.6,3.2,15.3,10.9,5.8,12.6-3.5.6-6.6,0-9.9-1,2.9,5,5.2,10.5,8.7,15.2.8,1,4.8,5.5,5.4,5.8,1.2.6,1.1.3,1.9-.4s6.2-9.9,5.6-10.5c-3.4.8-9.5,1.9-12-1.1-2-2.4.7-1.8,2.7-3.4,6.7-5.6,13-13.1,16.1-21.3-2.7.5-4.9,2.6-7.8,2.6s-9.9-.9-7.5-3.8c4.9-3.6,9.7-8.6,13.4-13.5,1.6-2.1,6.7-13.2,9.5-9.9,1.8,2,4,7.8,6.3,10.7,1.7,2.2,4.1,4.4,6.3,6,0,4.1.2,6.9,0,11.2l-6-1.5,5.2,11.2,1.3,1.5c.3,7-.5,19.1-.5,30.1-3.4,0-25.5-.8-26.7-.8-15.2-.2-30.8.5-46.2.4-2.9,0-13.1,0-14.9-.6-3.5-1-2-8.9-2-11.8,1.7-.3,3.8-3.2,4.8-4.5,3-3.9,5.3-8.2,7.9-12.3-2.2-.2-4,1-6.3,1.1-2.2.1-4.3-.1-6.4-.8v-6h0Z"/>
      <path class="st1" d="M1129.3,365.7c-.2-25.5-1.3-51-.4-76.4l.9-.6h89.2c.2,19.9-.2,39.9,0,59.8-2.2-1.7-4.6-3.9-6.3-6-2.3-2.9-4.6-8.6-6.3-10.7-2.8-3.2-7.9,7.8-9.5,9.9-3.7,4.9-8.5,9.9-13.4,13.5-2.4,2.8,5.4,3.8,7.5,3.8s5.2-2.1,7.8-2.6c-3.1,8.2-9.4,15.7-16.1,21.3-1.9,1.6-4.7,1-2.7,3.4,2.5,3,8.6,1.9,12,1.1.5.5-4.8,9.7-5.6,10.5s-.6,1.1-1.9.4c-.6-.3-4.7-4.8-5.4-5.8-3.6-4.6-5.9-10.1-8.7-15.2,3.3,1,6.4,1.6,9.9,1,9.6-1.8-3.1-9.4-5.8-12.6-3.5-4.2-4.7-9.1-7.2-13.8,2.3-.4,3.8,1.2,6.2,1.1,1.4,0,6.9-1.4,6.5-3.3-.2-.6-7.7-6.7-9.3-8.7-2.4-3-7-10.3-7.9-13.8,0-.4-.2-1.2.4-1.1,2.3,2.3,14,4.2,13.1-.4,0-.5-1.7-.7-2.3-1.5-2.6-3.1-5.4-6.2-7.8-9.5-2.2-3-7-12.9-9-14.2-.7-.5-1.2-1-2.2-.6s-9.6,14.7-11.4,17.1c-1.7,2.2-7.8,7.7-8.5,9.4-.7,1.5,1.2,1.1,1.8,1.1,1.9.1,4.9.2,6.8,0,1.5-.1,5.5-2.7,4.8-.4-1.4,4.6-5.5,10.9-8.6,14.6-1.2,1.4-9.5,8.5-8.6,9.7,4.8,1.5,9.5,2.6,13.8-.7.6-.1.5.7.4,1.1-2.2,7-9.7,16-16.4,19.1h.2Z"/>
      <path class="st1" d="M1128.6,259.4c5.6-3.5,12.4-4.1,18.5-6.6s11.1-6.6,17-9.1c2.5.6,4.7,15.6,11.7,17.6,2.9.8,6.2-5.2,7.4-7.6,1.2-2.5.6-6.3,4.2-6.3s15.1,7.1,18.1,8.9c4.8,2.9,8.9,6.3,13.7,9.1v11.3l-91.3-.8v-16.5h.8,0Z"/>
      <path class="st1" d="M1258,288.6c-5.7,8-14.8,12-23.6,15.7-2.1,7.4,2.8,9.4,9.2,10.3,5.9.9,10.2-.4,15.4-2.9l7.2-4c-8.3,14.4-21,26-35.9,33.3v-53.1c8.2.4,16.3-.2,24.4,0,1.4,0,2.8.8,3.3.8h0Z"/>
      <path class="st1" d="M1230.3,348.5c4.8.4,9.6,1.2,14.5.7,5.6-.7,10.2-4,15.4-5.1.8.7-11.1,15.9-12.3,17.2-2.4,2.6-9,8.5-12.7,10.4-1.3.6-3.9,2.8-5.6,2.8-.2-1.4.6-4.9.8-6.7.6-5.7,0-13.2,0-19.1h0v-.2Z"/>
      <path class="st1" d="M1320.1,314v19.5c-10.2-5.3-16.3-14.6-21.7-24.3,6.8,4,14.1,4,21.7,4.9h0Z"/>
      <path class="st8" d="M1252.8,278.1h-12c-.5-.2-1-.5-1.5-.8-1.6-1-4.2-3.5-6.1-4.8-1-.7-3.1-1.4-3.7-1.9v-14.2c4.6,2.4,8.1,7.3,12,10.9,2.4,2.2,5.9,4.5,8.2,6.7.6.6,3.8,3.4,3,4.1h0Z"/>
      <path class="st1" d="M1319.3,352.2c-.3,2.4.8,11.8.8,15.7-2.3-1.1-5-3.7-6.7-5.6-2.7-3-10.2-12.3-11.2-15.7-.2-.5-.2-1.3.4-1.1,5.2,3,10.9,5.6,16.8,6.7h-.1Z"/>
      <path class="st18" d="M1129.3,371.7c2.1.7,4.2.9,6.4.8,2.3-.1,4.1-1.4,6.3-1.1-2.6,4.1-4.9,8.4-7.9,12.3-1,1.3-3.1,4.3-4.8,4.5v-16.5h0Z"/>
      <path class="st1" d="M1320.1,303.5c-5.1-4.2-9.8-9.4-13.5-15,2.3,0,11.5-.6,12.4.7.4.6,1,12.3,1.1,14.3Z"/>
      <path class="st3" d="M1127.8,255.6v-90.6,90.6h0Z"/>
      <path class="st1" d="M1239.3,277.4h-9.7v-6.7c.6.5,2.6,1.2,3.7,1.9,1.8,1.3,4.4,3.8,6.1,4.8h0Z"/>
      <path class="st1" d="M1219.1,359.7c0,2.5-.2,5.5,0,7.9.2,1.9,1.2.9,2.3,1.1l-3,.7-5.2-11.2,6,1.5h-.1Z"/>
      <path class="st23" d="M1110.4,403.1h0l-.2-.2s0-.1,0-.2c0,0,0,.1,0,.2,0,.1,0,.2.2.2h0Z"/>
      <path class="st23" d="M1110.6,403v-.3h0v.3Z"/>
      <path class="st23" d="M1110.7,379.1v-7.9h0v7.9Z"/>
      <path class="st8" d="M1219.1,247.4v18c-4.8-2.8-8.9-6.2-13.7-9.1-3-1.8-15.6-8.9-18.1-8.9-3.6,0-2.9,3.9-4.2,6.3-1.2,2.4-4.5,8.5-7.4,7.6-7-2-9.2-17-11.7-17.6-5.9,2.5-11.2,6.6-17,9.1s-12.9,3.1-18.5,6.6c0-1.7-.6-2,.9-3.2,13.3-10.4,25.4-21,37.6-32.7,3.6-3.4,7.9-9.2,11.2-12,3.9-3.4,8.8-.8,12.3,2l28.5,34h0Z"/>
      <path class="st25" d="M1303.3,277.4c-.8,0-5-5.9-4.5-7.5,2.8,2.9,18.1,1.8,16.8-3.2-.3-1.3-7.7-7.6-9.3-9.5-5.2-6.1-9.1-14.4-12.3-21.7,2.7,1.5,19.8,7,17.9-.2-.6-2.3-11-12.2-13.2-15.2-3.4-4.6-6.8-10.7-9.7-15.7-1.5-2.6-2.8-9.7-7.5-6.9-.7.4-6.4,12.2-7.7,14.3-5.8,9.3-10.8,13.3-17.5,21-4.8,5.5,1.8,6.2,6.5,5.4,3.2-.6,6.1-2.6,8.6-3.4,1-.3,1.4.1,1.1,1.1-1,3.5-6.1,11.6-8.4,14.9-1.8,2.6-4.2,5.6-6.2,8-1.6,1.9-9.4,8.5-9.4,10.1,0,4,15,2.6,18,1.9.8.8-2.8,5.8-3.8,6.3-.8.4-1.5.6-2.3.7l43.1-.3h-.2Z"/>
      <path class="st23" d="M1219.1,246.7v30.1l-91.3-.8v-110.8c2.4-3.6,6.9-1.5,10.1-1.5,21.4.1,43.2-.1,64.3,0,2.6,0,15.1-.4,16.2.4.7.5.7,1.5.7,2.3,0,26.8,0,53.7,0,80.5h0v-.2ZM1260.2,277.7c-2.5.3-5.1-.4-7.4.4h-12c-.5-.2-1-.5-1.5-.8h-9.7v-72.5c0-13.5-.5-27.1.8-40.4h89l.8,113h-16.8M1253.4,421.1h95c0-.1,1.5,0,1.6-.2.7-5.5,0-12.9-.2-14-.8-1.3-8.6-.8-10.4-.9-1.6-.1-2.6.3-2.6-.6l-.3-258.3h-225.9c0,73.1.4,146.5-.8,219.3v.8c-.2,11.7,0,23.5,0,35.2-.2,0,0,1,0,1,0,2.6-8.1-.4-10.8,1.9-.6.9-.6,14.2,0,15.1.4.5.9.7,1.5.7h153ZM1252.8,400.9c-3.4,0-20.4,1.3-21.8-.7-.2-.2-.3-17.7-.4-17.7l-.2-13.4v-1.5c.6-5.7,0-13.2,0-19.1v-60.6c8.2.4,16.3-.2,24.4,0,1.4,0,2.8.8,3.3.8,15.9.2,32.5-.3,48.6,0,2.3,0,11.5-.6,12.4.7.4.6,1,12.3,1.1,14.3,0,3.5,0,7,0,10.5v19.5c0,6.8,0,12.5-.8,18.7-.3,2.4.8,11.8.8,15.7s-.7,5.3-.8,7.8c-.2,6,1,15.7,0,21-.3,1.4-1.2,2.2-2.2,3l-64.3,1.1M1217.9,399.9c-1,.6-4.1.1-5.9.2-.7.1-15.6.1-19.8,0-15.1-.2-30.6.5-45.9.4-2.9,0-13,0-14.8-.6-3.5-1-2-8.9-2-11.8v-22.5c-.2-25.5-1.3-51-.4-76.4l.9-.6h88.7c.2,19.9-.2,39.9,0,59.8,0,4.1.2,6.9,0,11.2,0,2.5-.2,5.5,0,7.9v21c-.4,4.1.6,10.4-.8,11.3h0Z"/>
    </g>
    <g id="planted-pot-1">
      <path class="st12" d="M1015,414.4h-3.8c-2.5-1.4-8.3-11.2-10.4-13.8-5.7-6.7-11.6-11.7-16-19.9-1.6-3-3.8-6.9,1.4-6.7,8.4.3,14.1,3.5,19.5,9.8,2.8,3.2,4.9,8.5,7.1,10.9.7.8,1.1,1.4,2.2,1.1,1.5-10,2.5-24-3.7-32.6-6.5-8.8-32.3-26.4-15.2-36.9,4.2-2.6,7.9-1.9,12,.5,7.5,4.4,4.8,10.7,5.5,17.7.2,2.4,4,15.5,5.7,16.1.4.1,2.4,0,2.5,0,.3-.3.6-7.3,1-9.1,2.1-10.2,5.3-17.5,15-22.4,7.9-4,21-4.8,19.9,7.2-1.4,15.6-32.1,25.9-32.1,43.6s6.3-4.6,7.5-6.1c5-6.1,27.3-19.7,34.8-20.5,12.8-1.4,29.6,4.8,33,18.5,2.2,9-2.7,17.1-12.2,18.1-6.2.7-8.9-4.1-13.5-6.6-11.2-6-31.3-6.2-40.3,3.6-6.8,7.5-7.8,18.3-10.1,27.7h-9.7v-.2Z"/>
      <path class="st13" d="M1054.7,432.4c0,.5.7,1.8.6,2.6-1.8,11.3-3.6,22.5-7.3,33.3-13.5-.8-27.6.6-41.1,0-4.8-12.5-4.8-23.4-5.2-35.9h53.1,0Z"/>
      <path class="st0" d="M1015,414.4h15.7c5.7,0,11.5-.1,17.2,0,5.3.1,6.3-1.3,10.5,2.2-1.2,4.7-1.7,9.6-2.4,14.5,0,.9-1.3,1.2-1.3,1.3h-53.1c0-2.3-2.6-8.3-2.9-11.7-.2-1.6-.5-3.8.6-5.2,1.4-1.8,12.7-1,15.8-1h0Z"/>
      <path class="st12" d="M1070.7,403.3c-5.1-6.1-11-6-18.4-4.4-7.6,1.7-15.1,9.4-20.8,14.8-.3.2-.5.5-.8.8,5.7,0,11.5-.1,17.2,0,5.3.1,6.3-1.3,10.5,2.2.9.8,1.4,1.7,2.1,2.2,16.9,13.3,20-3.9,10.2-15.7h0Z"/>
    </g>
    <g id="brush-pot-1">
      <path class="st17" d="M949.1,419.5c-1.6,14.9-3.9,29.7-5.2,44.5v2.2c0,1.9-1.5,3.4-3.3,3.4h-40.4c-1.8,0-3.4-1.4-3.5-3.3-.8-16-4-31.8-5.9-47.6,2.5-.4,4.7.7,7.1.8h39.7c.3,0,1.6-.8,2.9-.8,3-.1,5.8.2,8.7.8h0Z"/>
      <path class="st15" d="M929.6,400.8c3.5.2,7-.1,10.5,0,2.8,1.2,8.3-.9,9.9,2.4,1.3,2.8-.5,12.5-1,16.3-2.9-.6-5.7-.9-8.7-.8-1.3,0-2.6.8-2.9.8h-33.7c-1.8,0-4,.1-6,0-2.4-.1-4.7-1.2-7.1-.8-.4-3.1-2.1-13.7-1.1-15.7,0-.2,1.7-1.5,1.8-1.5,1.7-.4,5.1.2,7.2,0,1.1,0,2.1-.7,2.6-.8,1.6-.1,3.6,0,5.2,0h11.2c2.1,0,7.5,1,8.5.8.8-.2.3-1.4.5-1.5h.8c.5,0,1.4.7,2.2.8h0Z"/>
      <path class="st3" d="M929.6,400.8c1.3-5.8,10.5-19.9,9.6-24.9-.3-1.6-1.7-3.3-2-5.5-1-7.4,2.8-17.3,5.8-24,.8-1.7,3.2-7.7,5-7.7,2.7,0,16.5,7.7,20.5,8.3-2,9.2-8.1,21.9-14.8,28.8-1.6,1.6-3.5,1.8-5,4-3.8,5.3-5.2,15.2-8.5,21.1-3.5-.1-7,.2-10.5,0h0Z"/>
      <path class="st3" d="M915.4,400.8h-9c-1.6-8.6-2.3-17.2-3.7-25.8-.3-1.5.3-3.5,0-4.9,8.5-.5,7.3-5.1,8.2-12,1.8,10.4,2.6,21.3,3.7,31.8.4,3.5,0,7.3.8,10.9Z"/>
      <path class="st15" d="M926.6,371.6c-2.2.1-4.6-.2-6.7,0-1.6-4.2-2.6-10.1-2.2-14.6.3-3.7,1.7-12.7,2.5-16.1.8-3.1,2.9-5.4,4.7-1.6,1.2,2.4,3.7,14.1,3.9,17,.5,5.7-1.8,10-2.2,15.3h0Z"/>
      <path class="st8" d="M894.5,373.9h.8c0,1.8,1.6,4.5,2,6.6,1.4,6.8,2.7,13.6,4,20.4-.5,0-1.5.7-2.6.8-2.1.1-5.5-.4-7.2,0-.7-7.1-1.9-14.2-3-21.4-.2-1.5.3-3.6,0-4.9l6-1.5h0Z"/>
      <path class="st0" d="M926.6,400.1c.2-7.7-.3-15.5,0-23.2,0-1.7-.2-3.5,0-5.2-2.2.1-4.6-.2-6.7,0h-.8c-2.3,9.4-1.6,19.5-2.2,29.2h.8c2.1,0,7.5,1,8.5.8.8-.2.3-1.4.5-1.5h0Z"/>
      <path class="st21" d="M900,334.3c-.3-.4-1.5-2.3-1.8-.8-2.5,2.1-1.4,11-1.5,14.6,0,5.3-1.2,4.1.7,10.1,1,3.1,4.8,10.2,5.2,12,8.5-.5,7.3-5.1,8.2-12-1.7-9.9-4.3-16-10.9-23.9h0Z"/>
      <path class="st0" d="M893,352.9c-3.2-5.2-8.6-10-11.2-14.2-2.3-.4-1.5,1.1-1.5,2.6-.2,6.8-.2,19.1,2.2,25.1.9,2.1,5.7,8,6,9l6-1.5h.8c0-8.6,3-12.6-2.2-21h0Z"/>
    </g>
    <g id="brush-pot-2">
      <path class="st3" d="M870.7,381.6c-2.7,27-10,78.7-11.1,86.6,0,.6-.6,1-1.2,1-5.5,0-31.8.1-36.9,0-.5,0-.9-.4-.9-.9-.3-5.5-2-36-2.3-38.1-2-16.2-3.1-32.9-4.5-49.4l56.8.8h.1Z"/>
      <path class="st0" d="M823.6,311.5c-.3-.6-.4-1.2-.5-1.9-.7-.6-.9-3.6-1-4.4-2,1.7-11,2.3-12,3,0,0,0,.9-.2,1.3l-.3.9.5,1.5c3.7,14.6,5.9,29.8,10.5,44.2,4-.1,8,0,12,0l-9-44.2v-.4h0Z"/>
      <path class="st0" d="M871.4,308.2c-2.9-.7-4.7,7.1-4.9,7.4l-13.4,36s5-50.9,5.6-55.4c-4.7,1.7-9.6.4-14.2-.8,0,4.8-4,56-4.5,60.6,7.9,0,16-.3,23.9,0l15-44.9v-.8c.3-2.5-6.2-.3-7.5-2.2h0Z"/>
      <path class="st17" d="M820.6,356.1c4-.1,8,0,12,0h7.5c7.9,0,16-.3,23.9,0,3.6.1,7.8-1.2,8.8,3.5.4,1.9-.4,10-.6,12.5-.2,2.9-1.2,6.5-1.5,9.4l-56.8-.8c-.2-2.8-1.3-6.5-1.5-9.4-.2-2.4-.9-11.3-.5-13.1.7-3.1,6.3-2.1,8.7-2.2h0Z"/>
      <path class="st13" d="M810.1,308.2c-1.6-1.2-2.4-4.5-3-6.3-3-9.6-4.5-20.5-4.9-30.4l16.1-2.9c1.9,12.1,1.9,24.6,3.7,36.7-2,1.7-11,2.3-12,3h.1Z"/>
      <path class="st6" d="M858.7,296.2c-4.7,1.7-9.6.4-14.2-.8,0-7-2.9-15.6-1.3-22.7.5-2.3,5.9-8.1,8.5-8,1.8,0,10.6,6.5,10.8,8.6-1.4,7.6-2.7,15.1-3.8,22.8h0Z"/>
      <path class="st5" d="M871,308.2l1.1-14.2,5.2-10.6,4.9,1.1,7.2,3.9-10.7,21.3s-2.8.1-5.1-.4c-2.5-.5-2.7-1.1-2.7-1.1h0Z"/>
    </g>
    <g>
      <path class="st3" d="M1350.7,731.4c-1,0,24.6.7,24.6.7h.8c0-13.6,0-28.4,0-42-.2-56.4-.9-113.4-.8-170.3,0-3.3.4-24,.4-25.7-3.3-.4-277.2.3-277.2.3h-27.7v211c0,.5-.2,26.7,0,25.4,9.1.4,19.5,0,28.5.5M1213,688.7c0,2,1.5,5.4-.7,6.7-2.3,1.4-14.2,0-17.7,0-21.7.2-43.5.6-64.9.5-8.3,0-18.2.5-26.2,0-1,0-4.1-1-4.1-1.9v-177.9h113.6c0,0,.6,144.4.6,144.4-.8,9.4-.4,18.9-.5,28.3h-.1ZM1346.2,683.4c0,2.1.8,11.6-1.9,11.6h-114.4s-1.1-1-1.1-1.1v-176.8c0-.2,1.2-1.3,1.5-1.5l111.9-.4c3.4,0,3.8,1.2,4.1,4.1,2.2,23.2,0,113.9,0,138s.4,17.5,0,26.2h0ZM1352.6,729.5h0c4.1,0,8.8-.2,13.3-.3-4.5,0-9.2.2-13.3.3Z"/>
      <path class="st19" d="M1110,467.5h-125c-3.6-.1-131.7,0-147.4,0,0,0-23.2.3-33.1,1.5-.5,0-1,.2-1.4.6s-.7.9-.8,1.5c-2.3,6.5-2.7,13.6-1.2,20.3,0,.5.3,1,.7,1.4.3.2.6.3,1,.4,2.3.4,4.6.8,6.9,1.1h0c14.4.8,8.6.4,22.6.4,79.5,0,159.1-.3,238.6,0h38.6c.8-.2,1.4-26.9.4-26.9h0v-.3Z"/>
      <path class="st23" d="M1231.8,466h72.6c10.8,0,24.4-1,34.8,0,1.4.1,2.3.6,3.3,1.5-3,1-7.8,5.6-9.7,8.2,0,0-1-.3-1.5.5-1.2,2-.8,6.2-4.9,6.2h-193c-1.2,0-4.6-1.4-6.6-.9l-.5-.6c2.7-3.7,8-9.9,13.2-13.5,3.4-.3,73.7-1.4,92.3-1.4h0Z"/>
      <path class="st15" d="M1217.2,369.2c11.4,4.5,17.1,17.7,17.9,29.2.3,3.7-.2,7.5,0,11.2,0,3.2.7,7,.8,9.7.3,12.2-.2,24.5,0,36.7h-12.7c0-2.4.2-4.8,0-7.1,0-1-.8-2-.8-2.2v-17.2c0-2.8-.6-7.5-.8-10.9-.2-6.6.2-12-.8-18.7-.9-6.7-2.6-15.4-9.7-18-4.1-1.4-4.1-1-7.5.8-5.2,2.6-8.1,9.5-9,15v1.5c-1.3.8-.6,3.1-.8,4.5-.4,1.9-.6,4-1.4,5.7-.8.6-12.8.6-13.6,0-1.1-.7-.8-4.9-.7-6.4,1-11.2,9.8-33.2,22.4-35.2,3.6-.6,13,.1,16.5,1.5h.2Z"/>
      <path class="st15" d="M1194,452.3v-11.2c-7.6,2-14.6,1.2-14.2-8.2,4.8-1.6,29.5-1.7,32.2.3,1.6,1.2.8,4.3-.3,5.7-2.3,2.7-7.5,1.9-7.9,2.2-1,1-.7,12.6-.8,14.9h-9v-3.7h0Z"/>
      <path class="st17" d="M1098.6,467.5h-.8.8Z"/>
      <path class="st15" d="M1394.6,511.6s2.8,140,0,217.3c0,1.6-1.3,2.9-2.9,3-5,.4-11.3.6-15.8.5-.4,0-.8-.4-.8-.8,0-13.4,0-28.1-.2-41.5-.2-56.4,0-113.6.2-170.5,0-3-.2-4.6,0-8.3l19.5.2h0Z"/>
      <path d="M1348.6,729.4c-.2-1.3.5-16.4-1.3-16.4h-245.5c-1.4,0-2.5,1.1-2.5,2.5v15.9c1,0,20.4.3,22.4.3h35.9c62.2.2,126.1.7,188.3,0,1.3,0,2.5,0,2.6-2.3h0Z"/>
      <path class="st10" d="M1156.2,731.7h-34.4,34.4Z"/>
      <path class="st19" d="M1428.5,468.9c1.2,8.8.8,14.5.8,22.3s-1.3,2.8-3.7,3c-8.5.5-24.8,0-28.7.1h-40.5c-7.3,0-1.4-10.1-1.4-10.1,0-6.4-.5-8.5-.6-15.4,0-1.2.9-2.2,2.2-2.2,13.3-.1,53.9-2.1,69.8,0,1.2.2,2,1,2.1,2.2h0Z"/>
      <path class="st17" d="M1395.5,494.4c0,5.7-.9,11.5-.9,17.2-2.2-.2-19.3.2-19.3.2v-12.3s0-5.1.3-5.5c2.4-.2,16.6.1,19.9.4h0Z"/>
      <path class="st1" d="M1100.1,492.9c0-.1-.7-1.2-.8-3l.8,3Z"/>
      <path class="st13" d="M1070.9,494.4v25.4c0,0-.7-.8-.8-1.8-.2-2.3.2-4.8,0-7.2-1.3-.2,0,1.4-1.8,1.6-1.7,0-3.2-.5-4.7-.5-6.2,0-12.9,1.4-18.9-.3l-.8,46.4c.2-.4,0-1.6,0-2.2.3-4.6,0-9.6,0-14.2v-22.3c0-2.5.9-8.2-1.5-9.4-45.7-.8-91.5-.2-137.3-.3-14.6,0-28.6-.4-43.4,0-6.1.2-8.5-3.4-8.4,5.8,0,.9.6,1.5.6,1.6v12l-1.5-17.2c-6.8.1-13.6,0-20.2-1.5v-15.7c79.5,0,159.1-.3,238.6,0h0v-.2Z"/>
      <path class="st15" d="M1266.6,456h-11.2v-15c-3.4-.4-8.3,1.5-9.9-2.5-3-7.2,11.5-6.6,15.6-6.6s11.5.4,14.8,1c3.7.7,4.9,2,3.8,5.7-1.8,5.9-8.5,1.5-12.6,3.8l-.3,13.5h-.2Z"/>
      <path class="st3" d="M854,638.1c1.2.8,2.7.7,4.1.8,57.6,2,116.7-1.1,174.3-.6,3.2,0,7.3,1.2,10.8.7-.3,1.1.7,2.4.8,2.9v1.5l-.2,41.6-1,1-188.8-.6c.4-15.7-.5-31.5,0-47.2h0ZM956.3,654.1c-6.6,2.1-18-1.1-24,.7-5.4,1.6-5.2,9.4,2.8,10.3,4.9.6,25.5.8,29.8-.2,3.8-.8,4.8-6.1,3.2-8.8-1-1.7-9.4-2.3-11.8-2ZM855.5,683.8c.5-1-.5-2-.7-1.5-.5,1,.5,2,.7,1.5Z"/>
      <path class="st8" d="M1117.2,458.8c-1.6,0-9.6-.4-11,0-5.1,1.5-3.7,29.7-3.6,36.2,0,1.4,1,4.4,1,4.4,1.4,1.4,4.8,2.7,6.8,2.5,48.6.2,97-.6,145.5-.8,32-.1,65.1,1.3,96.9,0,1.7,0,3.3-.2,4.8-.8.8-.9,1.2-2.1,2.2-3.2l.2-20.1c0-11.2.6-17.5-2.2-17.5-8.1-1.3-240.7-.7-240.7-.7h0Z"/>
      <path class="st0" d="M934,620.2c-20.9,0-41.9.3-62.8,0h62.8Z"/>
      <path class="st17" d="M1070.9,705.5v-52.4,52.4Z"/>
      <path class="st0" d="M1043.3,618.7c0-1.4-.6-3.7.8-4.5,0,2.1,0,2.3-.8,4.5Z"/>
      <path class="st17" d="M854,534.8c-1.2-.5-1.2-3.2,0-3.7v3.7Z"/>
      <path class="st17" d="M854,540.1v-2.2,2.2Z"/>
      <path class="st17" d="M854,546.1v-2.2,2.2Z"/>
      <path class="st3" d="M1044,611.9c-2.3.4-1.4-1.1-1.5-2.6-.4-10.3.3-20.8,0-31.1l-188.5-.8c-.4,13.6.2,27.5,0,41.1.3.4,1.2,0,1.4,0,.4.3.3,1.2,1.8,1.5,3,.6,8.2,0,11.6,0h145.8c8.2,0,16.5.3,24.7,0,1.2,0,2.5.2,3.7,0,.3-.4,0-1.1,0-1.4,0-1.4-.6-3.7.8-4.5v-2.2h0ZM965,601.4c-6,.7-25.5.9-31.2,0-6.6-1.2-6.9-8.6-1.5-11.7,10.2.8,23.7-1.7,33.5,0,6.4,1,8.6,10.7-.8,11.8h0Z"/>
      <path class="st15" d="M1071.4,708c0-.6-.5-.9-.5-1v-55.4c-.4-1-.7-2.2-.8-3.6.2,1.3.4,2.6.8,3.6v-22.5h0v-.8l-.4.2.4-.2v-1.5h0v-.8l-.4.2.4-.2v-34.4l-.7-.4.7.4v-7.5h0v-.8l-.7.4h0l.7-.4v-6.7h0v-1.5l-.7,1.1h0l.7-1.1v-17.9h0v-.8l-.7.4h0l.7-.4v-3c-.6,0-.8-.6-.8-1.1,0,.5.3,1.1.8,1.1v-18.7h0v-.8l-.7.4h0l.7-.4v-6c-.5.3-.7.9-.8,1.6,0-.7.4-1.3.8-1.6v-1.5h0v-3.7c-.4.2-.7.7-.8,1.3v.6-.6c0-.6.4-1.1.8-1.3v-3c0,0-.7-.8-.8-1.8-.2-2.3.2-4.8,0-7.2-1.3-.2,0,1.4-1.8,1.6-1.7,0-3.2-.5-4.7-.5-6.2,0-12.9,1.4-18.9-.3l-.8,46.4-190,.8v-23.8c-1.2-.5-1.2-3.2,0-3.7v-2.2l-1.5-17.2c-6.8.1-13.6,0-20.2-1.5,0,50.2,2.7,102.5.8,152.3,0,.9-1,26.1-1,70,8.4.7,11.1,1.8,19.2,0,2.9-.7,2.5-2.1,2.7-4.5.6-6.7-.4-14.2,0-21h68.1c32,0,64.1-.3,96.1,0,1.3,0,3.3-.5,4.1.8h1.5c2.2-1,17.9-1.2,18.6-.6.4.3,0,1.2,0,1.3,0,0,1-.2,1.3,0,.6.7.4,16.7.2,19,0,1-.6,1.4-.8,1.8,0,.4,0,1,0,1.5,9.5,0,17.4.2,26.9,0h1.5c-2-2.2-.2-19-.2-23h.1ZM1044,641.9v1.5l-.2,41.6-1,1-188.8-.6c.4-15.7-.5-31.5,0-47.2v-4.8c.2-.9,1.2-.3,1.5-.5.7-.3,1.4-1.1,2.5-.8l184.5.4c2.2,1.3,1.4,7,1.5,9.4h0ZM1044,611.9v2.2c0,2.1,0,2.3-.8,4.5,0,.3.2,1,0,1.4-1.2.3-2.4,0-3.7,0-8.2.3-16.5,0-24.7,0h-80.8c-20.9,0-41.9.3-62.8,0h-2.2c-3.4,0-8.6.5-11.6,0-1.5-.3-1.4-1.2-1.8-1.5-.2,0-1.1.2-1.4,0,0-13.6-.6-27.4,0-41.1v-4.4c.8-1.2,2.8-.8,4.1-.8,60.8-.8,121.7.6,182.5,0,4.7,1.5,2.8,4,2.9,7,.6,10.8.8,21.8.5,32.7h0ZM1070.2,642.3c0-.8.3-1.5.5-2.1-.2.6-.4,1.3-.5,2.1ZM1070.6,629l-.4-.2h0l.4.2ZM1070.6,626.7l-.4-.2h0l.4.2ZM1070.3,531.7c-.2-.4-.2-.9-.2-1.3,0,.5,0,.9.2,1.3Z"/>
      <path d="M1043.8,708.6c-.3-.4-1.2,0-1.3,0,0,0,.2-1,0-1.3-.7-.6-16.4-.5-18.6.6h-1.5c-.8-1.2-2.8-.8-4.1-.8-32-.3-64.1,0-96.1,0h-68.1c-.4,6.8.6,14.3,0,21,1.6,1.7,3.2,1.4,5.2,1.5,2.2,0,4.5,0,6.7,0h3.7c57.8.5,115.7-.4,173.5,0,0-.4.7-.8.8-1.8.2-2.3.4-18.3-.2-19h0Z"/>
      <path class="st9" d="M869.7,729.5c-.5,1.2-3.2,1.2-3.7,0h3.7Z"/>
      <path class="st19" d="M1099.4,516h113.6c0,0,.6,144.4.6,144.4-.8,9.4-.4,18.9-.5,28.3,0,2,1.5,5.4-.7,6.7-2.3,1.4-14.2,0-17.7,0-21.7.2-43.5.6-64.9.5-8.3,0-18.2.5-26.2,0-1,0-4.1-1-4.1-1.9v-177.9h-.1ZM1207.1,689l.4-167.1-102.1.4v166.7h101.7Z"/>
      <path class="st19" d="M1228.8,517.1c0-.2,1.2-1.3,1.5-1.5l111.9-.4c3.4,0,3.8,1.2,4.1,4.1,2.2,23.2,0,113.9,0,138s.4,17.5,0,26.2c0,2.1.8,11.6-1.9,11.6h-114.4s-1.1-1-1.1-1.1v-176.8h0ZM1234,522v166.3h106.2c-.6-3.2.6-6.3.8-9.3,1.4-26.2,1.7-63.1,0-89.1-.2-2.3-.2-68.2-2.7-68.6l-104.3.8h0Z"/>
      <path d="M1044,519.1l-1.9-3-188.1.8s-.6-.7-.6-1.6c0-9.3,2.3-5.7,8.4-5.8,14.7-.4,28.8,0,43.4,0,45.8.2,91.6-.5,137.3.3,2.4,1.1,1.4,6.8,1.5,9.4h0Z"/>
      <path class="st3" d="M1044,555.8c.3-4.6,0-9.6,0-14.2v-22.3l-1.9-3-188.1.8v41.8l190-.8c.2-.4,0-1.6,0-2.2h0ZM966.6,540.1c-10.2-1-21.3,1.9-31.3.7-7.7-.9-9.8-8.1-2.9-11.7h32.7c6.1,1.8,8,8.1,1.5,11h0Z"/>
      <path d="M956.3,654.1c2.3-.3,10.8.3,11.8,2,1.6,2.7.6,8-3.2,8.8-4.3.9-24.9.7-29.8.2-8-.9-8.2-8.8-2.8-10.3,6-1.8,17.4,1.4,24-.7Z"/>
      <path class="st0" d="M855.5,683.8c-.3.5-1.3-.4-.7-1.5.3-.5,1.3.4.7,1.5Z"/>
      <path d="M932.3,529h32.7c6.1,1.8,8,8.1,1.5,11-10.2-1-21.3,1.9-31.3.7-7.7-.9-9.8-8.1-2.9-11.7h0Z"/>
      <path d="M932.3,589.6c10.2.8,23.7-1.7,33.5,0,6.4,1,8.6,10.7-.8,11.8-6,.7-25.5.9-31.2,0-6.6-1.2-6.9-8.6-1.5-11.7h0Z"/>
      <path d="M1042.5,632.5l-184.5-.4c-1.2-.3-1.8.5-2.5.8-.4.2-1.3-.5-1.5.5v4.8c1.2.8,2.7.7,4.1.8,57.6,2,116.7-1.1,174.3-.6,3.2,0,7.3,1.2,10.8.7-.3,1.1.7,2.4.8,2.9,0-2.3.7-8.1-1.5-9.4h0Z"/>
      <path d="M1043.5,579.3c-.2-3,1.8-5.5-2.9-7-60.8.5-121.7-.8-182.5,0-1.3,0-3.3-.5-4.1.8v4.4l188.5.8c.3,10.3-.4,20.8,0,31.1,0,1.4-.8,3,1.5,2.6.3-10.8,0-21.8-.5-32.7h0Z"/>
      <path class="st3" d="M1207.1,689h-101.7v-166.7l102.1-.4-.4,167.1h0Z"/>
      <path class="st3" d="M1234,522l104.3-.8c.4,0,2-.2,2.2,2.4,1.5,14.7.3,64.2.4,66.2,1.7,26,1.4,63,0,89.1-.2,3-1.3,6.1-.8,9.3h-106.2v-166.3h0Z"/>
      <path d="M1192.7,557.7c2.1,2.2,2.2,26.7,1.7,30.9-.8,7.1-7.6,8.8-9.7,1.4.7-8.6-.3-19.3.7-27.7.4-3.6,4.5-7.6,7.3-4.7h0Z"/>
      <path d="M1252.5,593.3c-2,2-8.1,1.7-8.7-2.5-.8-5.5-.9-26,0-31.3.9-6,8.7-5,9.7,0s.5,24.2,0,30c0,1.2,0,3.1-1,3.9h0Z"/>
      <path class="st15" d="M1164.6,460.5c5.2-.8,20.9-3.7,35.5-5.2s54.6.8,63.2.4,30.3,1.5,32.9,1.9,1.9,6.4,1.9,6.4h-133.5v-3.4h0Z"/>
      <path class="st6" d="M1120.8,463.7v2.4c-.2,1.5.9,2.7,2.4,2.7l215.8.8c1.9,0,3.3-1.7,3-3.6l-.4-2-220.8-.3h0Z"/>
    </g>
    <g id="pegboard-1">
      <path class="st23" d="M771.1,286c0-6,0-202.7-.5-235.3,0-4,2.4-19.2-2.3-20.6l-350.4.2c-3.7,1.2-3,0-2.2,147.9,0,7.9.8,104.2.9,122.7,0,1.7,1.4,3.1,3.1,3.1,31.5.2,297,1.7,335.6,1.5,19.1-.1,15.5,4.9,15.7-19.5h0Z"/>
      <!-- [Artist signatures content continues but truncated for length - original SVG is over 100k characters] -->
    </g>
  </g>
</svg>
